<?xml version="1.0" encoding="UTF-8" standalone="no"?><!DOCTYPE svg PUBLIC "-//W3C//DTD SVG 1.1//EN" "http://www.w3.org/Graphics/SVG/1.1/DTD/svg11.dtd"><svg width="46px" height="46px" viewBox="1000 1000 3000 2500" version="1.1" xmlns="http://www.w3.org/2000/svg" xmlns:xlink="http://www.w3.org/1999/xlink" xml:space="preserve" xmlns:serif="http://www.serif.com/" style="fill-rule:evenodd;clip-rule:evenodd;stroke-linejoin:round;stroke-miterlimit:2;"><g id="Layer-1" serif:id="Layer 1"><g><path d="M2405.35,1695.22l0,1200c331.371,-0 600,-268.629 600,-600c0,-331.371 -268.629,-600 -600,-600Z" style="fill:#141329;fill-rule:nonzero;"/><path d="M2405.35,1725.22c314.805,-0 570,255.196 570,570c0,314.804 -255.195,570 -570,570c-314.804,-0 -570,-255.196 -570,-570c0,-314.804 255.196,-570 570,-570" style="fill:#fff;fill-rule:nonzero;"/><path d="M2752.46,1881.55l-694.209,827.329c228.463,191.7 569.071,161.9 760.767,-66.554c191.7,-228.462 161.9,-569.071 -66.554,-760.771l-0.004,-0.004Z" style="fill:#141329;fill-rule:nonzero;"/><path d="M2405.35,1785.21c281.667,0 510,228.338 510,510c0,281.667 -228.333,510.004 -510,510.004c-281.666,0 -510,-228.337 -510,-510.004c0,-281.662 228.334,-510 510,-510" style="fill:#fff;fill-rule:nonzero;"/><path d="M2878.06,2211.87l-945.421,166.7c46.042,261.071 294.996,435.392 556.062,389.358c261.071,-46.037 435.392,-294.987 389.359,-556.054l-0,-0.004Z" style="fill:#141329;fill-rule:nonzero;"/><path d="M2405.35,1845.22c248.525,-0 450,201.475 450,450c0,248.525 -201.475,450 -450,450c-248.525,-0 -450,-201.475 -450,-450c0,-248.525 201.475,-450 450,-450" style="fill:#fff;fill-rule:nonzero;"/><path d="M2195.35,2658.94c200.88,115.987 457.75,47.158 573.725,-153.721l0.005,-0.004l-727.459,-420c-115.983,200.883 -47.154,457.75 153.729,573.725Z" style="fill:#141329;fill-rule:nonzero;"/><path d="M2405.35,1905.22c215.388,-0 390,174.608 390,390c0,215.387 -174.612,389.995 -390,389.995c-215.387,0 -390,-174.608 -390,-389.995c0,-215.392 174.613,-390 390,-390" style="fill:#fff;fill-rule:nonzero;"/><path d="M2282.22,1956.93c-186.833,68 -283.162,274.584 -215.158,461.417c68,186.829 274.583,283.158 461.412,215.163l0.005,-0.005l-246.259,-676.575Z" style="fill:#141329;fill-rule:nonzero;"/><path d="M2405.35,1965.22c182.255,0 330,147.746 330,330c0,182.254 -147.745,330 -330,330c-182.254,0 -330,-147.746 -330,-330c0,-182.254 147.746,-330 330,-330" style="fill:#fff;fill-rule:nonzero;"/><path d="M2123.44,2192.61c-56.663,155.691 23.612,327.841 179.308,384.512l102.604,-281.908l102.609,-281.908l-0.004,-0c-33.867,-12.33 -68.513,-18.175 -102.58,-18.175c-122.541,0.004 -237.591,75.65 -281.937,197.479Z" style="fill:#141329;fill-rule:nonzero;"/><path d="M2405.35,2025.22c149.117,-0 270,120.883 270,270c0,149.116 -120.883,270 -270,270c-149.116,-0 -270,-120.884 -270,-270c0,-149.117 120.884,-270 270,-270" style="fill:#fff;fill-rule:nonzero;"/><path d="M2285.35,2087.37c-114.791,66.271 -154.12,213.054 -87.845,327.842l415.691,-239.992l-0.004,-0.004c-44.45,-77 -125.112,-120.046 -208.062,-120.042c-40.713,0.004 -81.988,10.379 -119.78,32.196Z" style="fill:#141329;fill-rule:nonzero;"/><path d="M2405.35,2085.21c115.98,0 210,94.021 210,210c0,115.979 -94.02,210.004 -210,210.004c-115.979,0 -210,-94.025 -210,-210.004c0,-115.979 94.021,-210 210,-210" style="fill:#fff;fill-rule:nonzero;"/><path d="M2228.09,2263.96l354.533,62.516c17.263,-97.9 -48.108,-191.258 -146.008,-208.525c-10.575,-1.866 -21.084,-2.766 -31.463,-2.762c-85.708,0.004 -161.662,61.446 -177.062,148.771Z" style="fill:#141329;fill-rule:nonzero;"/><path d="M2405.35,2145.22c82.842,-0 150,67.158 150,150c0,82.842 -67.158,150 -150,150c-82.841,-0 -150,-67.158 -150,-150c0,-82.842 67.159,-150 150,-150" style="fill:#fff;fill-rule:nonzero;"/><path d="M2328.22,2203.29l154.275,183.858c50.767,-42.604 57.387,-118.296 14.787,-169.067c-23.737,-28.287 -57.737,-42.866 -91.987,-42.866c-27.217,0.004 -54.592,9.212 -77.075,28.075Z" style="fill:#141329;fill-rule:nonzero;"/><path d="M2405.35,2205.22c49.709,-0 90,40.291 90,90c0,49.704 -40.291,89.995 -90,89.995c-49.708,0 -90,-40.291 -90,-89.995c0,-49.709 40.292,-90 90,-90" style="fill:#fff;fill-rule:nonzero;"/><path d="M2405.35,2235.22l0,120.004c33.138,0 60.005,-26.867 60.005,-60.004c-0,-33.138 -26.867,-60 -60.005,-60Z" style="fill:#141329;fill-rule:nonzero;"/><path d="M2405.35,2265.22c16.571,0 30,13.433 30,30c0,16.571 -13.429,30 -30,30c-16.57,0 -30,-13.429 -30,-30c0,-16.567 13.43,-30 30,-30" style="fill:#fff;fill-rule:nonzero;"/></g></g></svg>