<?xml version="1.0" encoding="UTF-8" standalone="no"?><!DOCTYPE svg PUBLIC "-//W3C//DTD SVG 1.1//EN" "http://www.w3.org/Graphics/SVG/1.1/DTD/svg11.dtd"><svg width="40px" height="40px" viewBox="0 0 281 288" version="1.1" xmlns="http://www.w3.org/2000/svg" xmlns:xlink="http://www.w3.org/1999/xlink" xml:space="preserve" xmlns:serif="http://www.serif.com/" style="fill-rule:evenodd;clip-rule:evenodd;stroke-linejoin:round;stroke-miterlimit:2;"><g><path d="M136.8,0l-0,288c79.529,0 144,-64.471 144,-144c-0,-79.529 -64.471,-144 -144,-144Z" style="fill:#141329;fill-rule:nonzero;"/><path d="M136.8,7.2c75.553,0 136.8,61.247 136.8,136.8c0,75.553 -61.247,136.8 -136.8,136.8c-75.553,0 -136.8,-61.247 -136.8,-136.8c0,-75.553 61.247,-136.8 136.8,-136.8" style="fill:#fff;fill-rule:nonzero;"/><path d="M220.105,44.72l-166.61,198.559c54.831,46.008 136.577,38.856 182.584,-15.973c46.008,-54.831 38.856,-136.577 -15.973,-182.585l-0.001,-0.001Z" style="fill:#141329;fill-rule:nonzero;"/><path d="M136.8,21.6c67.6,-0 122.4,54.801 122.4,122.4c0,67.6 -54.8,122.401 -122.4,122.401c-67.6,-0 -122.4,-54.801 -122.4,-122.401c-0,-67.599 54.8,-122.4 122.4,-122.4" style="fill:#fff;fill-rule:nonzero;"/><path d="M250.25,123.996l-226.901,40.008c11.05,62.657 70.799,104.494 133.455,93.446c62.657,-11.049 104.494,-70.797 93.446,-133.453l0,-0.001Z" style="fill:#141329;fill-rule:nonzero;"/><path d="M136.8,36c59.646,-0 108,48.354 108,108c0,59.646 -48.354,108 -108,108c-59.646,-0 -108,-48.354 -108,-108c0,-59.646 48.354,-108 108,-108" style="fill:#fff;fill-rule:nonzero;"/><path d="M86.4,231.294c48.211,27.837 109.86,11.318 137.694,-36.893l0.001,-0.001l-174.59,-100.8c-27.836,48.212 -11.317,109.86 36.895,137.694Z" style="fill:#141329;fill-rule:nonzero;"/><path d="M136.8,50.4c51.693,0 93.6,41.906 93.6,93.6c-0,51.693 -41.907,93.599 -93.6,93.599c-51.693,0 -93.6,-41.906 -93.6,-93.599c0,-51.694 41.907,-93.6 93.6,-93.6" style="fill:#fff;fill-rule:nonzero;"/><path d="M107.249,62.811c-44.84,16.32 -67.959,65.9 -51.638,110.74c16.32,44.839 65.9,67.958 110.739,51.639l0.001,-0.001l-59.102,-162.378Z" style="fill:#141329;fill-rule:nonzero;"/><path d="M136.8,64.8c43.741,-0 79.2,35.459 79.2,79.2c0,43.741 -35.459,79.2 -79.2,79.2c-43.741,-0 -79.2,-35.459 -79.2,-79.2c0,-43.741 35.459,-79.2 79.2,-79.2" style="fill:#fff;fill-rule:nonzero;"/><path d="M69.141,119.375c-13.599,37.366 5.667,78.682 43.034,92.283l24.625,-67.658l24.626,-67.658l-0.001,-0c-8.128,-2.959 -16.443,-4.362 -24.619,-4.362c-29.41,0.001 -57.022,18.156 -67.665,47.395Z" style="fill:#141329;fill-rule:nonzero;"/><path d="M136.8,79.2c35.788,0 64.8,29.012 64.8,64.8c0,35.788 -29.012,64.8 -64.8,64.8c-35.788,0 -64.8,-29.012 -64.8,-64.8c0,-35.788 29.012,-64.8 64.8,-64.8" style="fill:#fff;fill-rule:nonzero;"/><path d="M108,94.117c-27.55,15.905 -36.989,51.133 -21.083,78.682l99.766,-57.598l-0.001,-0.001c-10.668,-18.48 -30.027,-28.811 -49.935,-28.81c-9.771,0.001 -19.677,2.491 -28.747,7.727Z" style="fill:#141329;fill-rule:nonzero;"/><path d="M136.8,93.6c27.835,-0 50.4,22.565 50.4,50.4c0,27.835 -22.565,50.401 -50.4,50.401c-27.835,-0 -50.4,-22.566 -50.4,-50.401c0,-27.835 22.565,-50.4 50.4,-50.4" style="fill:#fff;fill-rule:nonzero;"/><path d="M94.256,136.498l85.088,15.004c4.143,-23.496 -11.546,-45.902 -35.042,-50.046c-2.538,-0.448 -5.06,-0.664 -7.551,-0.663c-20.57,0.001 -38.799,14.747 -42.495,35.705Z" style="fill:#141329;fill-rule:nonzero;"/><path d="M136.8,108c19.882,-0 36,16.118 36,36c0,19.882 -16.118,36 -36,36c-19.882,-0 -36,-16.118 -36,-36c0,-19.882 16.118,-36 36,-36" style="fill:#fff;fill-rule:nonzero;"/><path d="M118.287,121.937l37.026,44.126c12.184,-10.225 13.773,-28.391 3.549,-40.576c-5.697,-6.789 -13.857,-10.288 -22.077,-10.288c-6.532,0.001 -13.102,2.211 -18.498,6.738Z" style="fill:#141329;fill-rule:nonzero;"/><path d="M136.8,122.4c11.93,0 21.6,9.67 21.6,21.6c0,11.929 -9.67,21.599 -21.6,21.599c-11.93,0 -21.6,-9.67 -21.6,-21.599c0,-11.93 9.67,-21.6 21.6,-21.6" style="fill:#fff;fill-rule:nonzero;"/><path d="M136.8,129.6l0,28.801c7.953,-0 14.401,-6.448 14.401,-14.401c0,-7.953 -6.448,-14.4 -14.401,-14.4Z" style="fill:#141329;fill-rule:nonzero;"/><path d="M136.8,136.8c3.977,-0 7.2,3.224 7.2,7.2c0,3.977 -3.223,7.2 -7.2,7.2c-3.977,-0 -7.2,-3.223 -7.2,-7.2c0,-3.976 3.223,-7.2 7.2,-7.2" style="fill:#fff;fill-rule:nonzero;"/></g></svg>